<svg xmlns="http://www.w3.org/2000/svg" width="933.333" height="933.333" version="1.0" viewBox="0 0 700 700"><path d="M229.9 63.4c-.2.2-3.5.7-7.4 1.1-6.1.6-25.2 3.6-31 4.9-6.3 1.4-23.4 6.4-26 7.6-1.1.5-5.5 2.3-9.8 4-53.8 21-100.1 70.5-126.6 135.5-.5 1.1-1.4 3.3-2.1 5-3.4 8.4-10.8 34.5-12.7 44.5-.2 1.4-.8 4.3-1.3 6.5s-1.2 6.7-1.5 10c-.4 3.3-.9 6.3-1.1 6.6-.8 1.4-1.8 21-1.8 35.9 0 21.5.9 31.8 4.4 50 17.3 88 81.6 151.9 178.3 177 8.4 2.2 17 4.2 19.2 4.6 2.2.3 4.3.8 4.6 1 .3.2 2.1.6 4 .9 1.9.3 6.1 1 9.4 1.6 6.2 1.1 7.1 1.3 14 2.4 5.6 1 7.3 1.2 13 2 2.8.4 5.7.9 6.5 1 .9.2 4.3.6 7.5 1 3.3.4 7.1.9 8.5 1.1 2.3.4 9.9 1.4 14.5 1.9 1.1.1 3.1.3 4.5.4 2 .1.9 1.2-6 5.7-30.8 19.9-67.7 34.1-109 41.9-7.4 1.4-15.2 2.7-17.2 2.8-2.1.1-3.8.5-3.8.8 0 1.1 25.9 8.1 36.5 9.9 2.8.5 6.1 1.1 7.4 1.4 1.3.3 4.9.8 8 1.2 3.1.3 5.8.8 6.1.9 4.4 2.6 71 2.6 85 0 .8-.1 4-.6 7-.9 3-.4 11.4-1.8 18.5-3.2 35-6.8 68.7-18.3 100.9-34.6l10-5 8.5.8c4.8.4 9.5.8 10.6 1 15.8 1.8 62.5 2.5 78 1.1 47.8-4.1 81.7-17 104.5-39.6 16.1-16 25-33.9 35.4-71.1 3.2-11.5 9.7-39.8 11.1-48 .3-1.9 1.2-7.1 2-11.5 1.5-8.9 2.3-13.6 3-19.8.3-2.3.7-5.2.9-6.4.3-1.2.8-5.7 1.1-10 .4-4.3.8-8 1-8.3 1.6-2.8 2.6-56.7 1.3-69-.8-6.7-.9-7.2-2.8-15.5-3.7-16.4-17.4-41.5-33.7-61.8-6.1-7.6-26.9-29-33.8-34.7-10.6-8.8-14.1-11.5-24-18.7-6-4.3-15.3-10.6-20.6-13.8-5.2-3.3-10.4-6.6-11.5-7.3-1-.6-3-1.8-4.4-2.4-1.4-.7-5.6-3.1-9.5-5.3-26.2-15.2-72.3-34.9-115-49-25-8.3-69.4-20.9-80.5-22.8-1.4-.3-4.3-.9-6.5-1.5-3.7-1-21.6-4.8-27.5-5.8-1.4-.3-6.3-1.2-11-2-10.2-1.9-10.5-2-20-3.3-4.1-.6-9.1-1.4-11-1.7-3.9-.7-55.5-1.6-56.1-1zm59.8 185.2c-.3.3-1.2.4-1.9.1-.8-.3-.5-.6.6-.6 1.1-.1 1.7.2 1.3.5zm-12 2c-.3.3-1.2.4-1.9.1-.8-.3-.5-.6.6-.6 1.1-.1 1.7.2 1.3.5zM269 253c-.8.5-1.9 1-2.5 1-.5 0-.3-.5.5-1s2-1 2.5-1c.6 0 .3.5-.5 1zm52.1.7c1.3 1.6 1.2 1.7-.3.4-1.7-1.3-2.2-2.1-1.4-2.1.2 0 1 .8 1.7 1.7zm-66.6 5.3c-.3.5-1.2 1-1.8 1-.7 0-.6-.4.3-1 1.9-1.2 2.3-1.2 1.5 0zm263.2 22.8c7.4 10.3 11.8 22.5 14.6 40.4.2 1.6 0 2.8-.4 2.8-.5 0-.9-1.3-.9-2.9 0-4.6-2.7-16.2-5.3-23.2-4.2-11-7.9-16.9-17.6-27.4l-5.5-6 5.3 5c2.9 2.7 7.3 7.8 9.8 11.3zm-362 2.4c-.3.8-.6.5-.6-.6-.1-1.1.2-1.7.5-1.3.3.3.4 1.2.1 1.9zm47.3 5.5c-1.1 1.7-1.1 1.7-.6 0 .3-1 .6-2.4.7-3 0-.9.2-.9.5 0 .3.7 0 2-.6 3zm-46.3 8.8c0 .8-.4 1.2-.9.9-.5-.3-.6-1-.3-1.5.9-1.3 1.2-1.1 1.2.6zm291.6 4.5c.3 1.1.1 1.8-.4 1.4-.5-.3-.9-1.2-.9-2 0-2 .7-1.7 1.3.6zm-58.3.4c0 .2-.8 1-1.7 1.7-1.6 1.3-1.7 1.2-.4-.4 1.3-1.6 2.1-2.1 2.1-1.3zm-5 7c0 .2-.8 1-1.7 1.7-1.6 1.3-1.7 1.2-.4-.4 1.3-1.6 2.1-2.1 2.1-1.3zm-75 4.9c0 .2-1 1.2-2.2 2.3l-2.3 1.9 1.9-2.3c1.8-2.1 2.6-2.7 2.6-1.9zm-5.9 6c-1 .9-1.1.8-.5-.6.3-1 .9-1.5 1.2-1.2.3.3 0 1.1-.7 1.8zm123.9-2c0 .2-1.2 1.4-2.7 2.8l-2.8 2.4 2.4-2.8c2.3-2.5 3.1-3.2 3.1-2.4zm-6.6 8.2c-.9 1.4-1.8 2.5-2.1 2.5-.5 0 .5-1.8 2-3.8 1.7-2.2 1.8-1.3.1 1.3zm-181.7.7c-.3.8-.6.5-.6-.6-.1-1.1.2-1.7.5-1.3.3.3.4 1.2.1 1.9zm293-.2c.1 1.1-.2 1.8-.8 1.5-1.1-.7-1.2-3.5-.1-3.5.4 0 .8.9.9 2zM295 329.4c0 .2-.8 1-1.7 1.7-1.6 1.3-1.7 1.2-.4-.4 1.3-1.6 2.1-2.1 2.1-1.3zm238 3.1c0 .8-.4 1.5-.8 1.5-.5 0-.9-.7-.9-1.5s.4-1.5.9-1.5c.4 0 .8.7.8 1.5zm-294.9 1.8c-1 .9-1.1.8-.5-.6.3-1 .9-1.5 1.2-1.2.3.3 0 1.1-.7 1.8zm50.9 0c0 .2-1 1.2-2.2 2.3l-2.3 1.9 1.9-2.3c1.8-2.1 2.6-2.7 2.6-1.9zm243.2 5.9c-.6 7.2-1.3 7.5-1.1.5.1-3.1.5-5.7.9-5.7s.5 2.4.2 5.2zm-330.1-1.5c-.4 1.6-.7 4.2-.6 6 .1 1.8-.2 3-.5 2.8-.6-.4-.6-3.6-.1-9.8 0-.9.5-1.7 1-1.7.6 0 .6 1.2.2 2.7zm213-.4c-1 .9-1.1.8-.5-.6.3-1 .9-1.5 1.2-1.2.3.3 0 1.1-.7 1.8zM283 339.4c0 .2-.8 1-1.7 1.7-1.6 1.3-1.7 1.2-.4-.4 1.3-1.6 2.1-2.1 2.1-1.3zm-8 7c0 .2-.8 1-1.7 1.7-1.6 1.3-1.7 1.2-.4-.4 1.3-1.6 2.1-2.1 2.1-1.3zm194.7 2.8c-.3.8-.6.5-.6-.6-.1-1.1.2-1.7.5-1.3.3.3.4 1.2.1 1.9zm61 1c-.3.7-.5.2-.5-1.2s.2-1.9.5-1.3c.2.7.2 1.9 0 2.5zm-163 2c-.3.8-.6.5-.6-.6-.1-1.1.2-1.7.5-1.3.3.3.4 1.2.1 1.9zm102.7.4c.3.8.2 1.2-.4.9-.6-.3-1-1-1-1.6 0-1.4.7-1.1 1.4.7zm59.3 1.6c-.3.8-.6.5-.6-.6-.1-1.1.2-1.7.5-1.3.3.3.4 1.2.1 1.9zm-163 3c-.3.8-.6.5-.6-.6-.1-1.1.2-1.7.5-1.3.3.3.4 1.2.1 1.9zM261 359.4c0 .2-.8 1-1.7 1.7-1.6 1.3-1.7 1.2-.4-.4 1.3-1.6 2.1-2.1 2.1-1.3zm146.7 1.8c-.3.8-.6.5-.6-.6-.1-1.1.2-1.7.5-1.3.3.3.4 1.2.1 1.9zm-41.2 4.8c.3.5.1 1-.4 1-.6 0-1.1-.5-1.1-1 0-.6.2-1 .4-1 .3 0 .8.4 1.1 1zm155.8 7.5c-.3.9-.8 1.4-1 1.1-.3-.3-.2-.9.2-1.5.9-1.6 1.5-1.3.8.4zm-283.6 3.2c-.3 1-.5.4-.5-1.2 0-1.7.2-2.4.5-1.8.2.7.2 2.1 0 3zm206.4.6c-1 .9-1.1.8-.5-.6.3-1 .9-1.5 1.2-1.2.3.3 0 1.1-.7 1.8zM238 381.4c0 .2-.8 1-1.7 1.7-1.6 1.3-1.7 1.2-.4-.4 1.3-1.6 2.1-2.1 2.1-1.3zm279 1c0 .2-.8 1-1.7 1.7-1.6 1.3-1.7 1.2-.4-.4 1.3-1.6 2.1-2.1 2.1-1.3zm-406 3c0 .3-.4.8-1 1.1-.5.3-1 .1-1-.4 0-.6.5-1.1 1-1.1.6 0 1 .2 1 .4zm43.7 3.8c.2 1.7 0 1.9-.7.8-.5-.8-.6-1.8-.4-2.2.8-1.2 1-1 1.1 1.4zm283.3.8c-.6 1.1-1.3 2-1.6 2-.2 0 0-.9.6-2s1.3-2 1.6-2c.2 0 0 .9-.6 2zm-3 5.4c0 .2-.8 1-1.7 1.7-1.6 1.3-1.7 1.2-.4-.4 1.3-1.6 2.1-2.1 2.1-1.3zm-3 3.9c0 .2-1 1.2-2.2 2.3l-2.3 1.9 1.9-2.3c1.8-2.1 2.6-2.7 2.6-1.9zm-54.9 6.4c1.3 1.6 1.2 1.7-.3.4-1.7-1.3-2.2-2.1-1.4-2.1.2 0 1 .8 1.7 1.7zm-223.4 11.5c-.3.7-.5.2-.5-1.2s.2-1.9.5-1.3c.2.7.2 1.9 0 2.5zm-.7 2.1c0 .2-1 1.2-2.2 2.3l-2.3 1.9 1.9-2.3c1.8-2.1 2.6-2.7 2.6-1.9zm318.7 4.9c-.3.8-.6.5-.6-.6-.1-1.1.2-1.7.5-1.3.3.3.4 1.2.1 1.9zM199 426.4c0 .3-.4.8-1 1.1-.5.3-1 .1-1-.4 0-.6.5-1.1 1-1.1.6 0 1 .2 1 .4zm-2.5 3.6c-.3.5-1.2 1-1.8 1-.7 0-.6-.4.3-1 1.9-1.2 2.3-1.2 1.5 0zm273.6 5.3c-1 .9-1.1.8-.5-.6.3-1 .9-1.5 1.2-1.2.3.3 0 1.1-.7 1.8z"/></svg>