<svg xmlns="http://www.w3.org/2000/svg" xml:space="preserve" style="enable-background:new 0 0 31.6 31.6" viewBox="0 0 31.6 31.6"><path d="M31.1 4.9C28.4 3.1 26 3.5 24 4.7c-1.8-1.5-3.4-1.6-3.4-1.6L18 5.6C13.4 3.4 7.6 4.2 3.7 8.1-1.2 13-1.2 21 3.7 25.9s12.9 4.9 17.8 0c3.9-3.9 4.7-9.7 2.4-14.4L26.5 9s0-1.2-1-2.6c1.4-.7 2.8-.7 4.4.4.5.3 1.2.2 1.5-.3.4-.6.2-1.3-.3-1.6zM11.7 9.2c-.2.1-6.1 1.3-6.9 6.7-.1.6-.6 1-1.2.9-.2 0-.5-.1-.6-.3-.2-.2-.4-.6-.3-.9 1-6.9 8.3-8.5 8.6-8.6.6-.1 1.2.3 1.3.8.1.7-.3 1.2-.9 1.4z"/></svg>