<svg xmlns="http://www.w3.org/2000/svg" xml:space="preserve" viewBox="0 0 512 512"><path d="M256 80c-97.2 0-176 78.8-176 176 0 41.6 5 68.3 26.2 96.4 3.2 4.2 4.1 9.8 2.3 14.8-4.9 14.4-12.3 35.9-18.4 53.8l-1.3 3.8 13.8-3.7c22.3-6 46.2-12.4 53.2-14.3 4.1-1.1 8.5-.5 12.2 1.6 25.9 15 55.9 23.5 88 23.5 97.2 0 176-78.8 176-176C432 158.8 353.2 80 256 80zM53.4 464c-15.1-5.2-4.6-21.2-4.6-21.2l11-32.2c5.1-14.9 11-32.3 15.7-46C52.8 331 48 297.9 48 256c0-114.9 93.1-208 208-208s208 93.1 208 208-93.1 208-208 208c-35.5 0-68.9-8.9-98.1-24.6-10.5 2.8-29.3 7.9-47 12.6l-42.7 11.4-14.8.6z"/></svg>